<?xml version="1.0" standalone="no"?>
<!DOCTYPE svg PUBLIC "-//W3C//DTD SVG 20010904//EN"
 "http://www.w3.org/TR/2001/REC-SVG-20010904/DTD/svg10.dtd">
<svg version="1.0" xmlns="http://www.w3.org/2000/svg"
 width="240.000000pt" height="240.000000pt" viewBox="0 0 240.000000 240.000000"
 preserveAspectRatio="xMidYMid meet">

<g transform="translate(0.000000,240.000000) scale(0.100000,-0.100000)"
fill="#000000" stroke="none">
<path d="M1055 2203 c-212 -33 -420 -139 -569 -289 -125 -124 -221 -291 -267
-464 -34 -124 -34 -376 0 -500 79 -296 278 -535 552 -664 155 -73 236 -90 429
-90 193 0 274 17 429 90 220 104 381 265 485 485 73 155 90 236 90 429 0 193
-17 274 -90 429 -103 219 -266 382 -485 485 -141 67 -237 88 -404 92 -77 1
-153 0 -170 -3z m-199 -453 c15 -6 98 -81 186 -167 l158 -157 158 157 c88 86
171 161 186 167 133 50 256 -73 206 -206 -6 -15 -81 -98 -167 -186 l-157 -158
157 -158 c86 -88 161 -171 167 -186 50 -133 -73 -256 -206 -206 -15 6 -99 81
-186 167 l-159 157 -147 -145 c-187 -185 -192 -189 -256 -189 -115 0 -187 106
-146 216 6 15 81 98 167 186 l157 158 -157 158 c-86 88 -161 171 -167 186 -50
133 73 256 206 206z"/>
</g>
</svg>
